<?xml version="1.0" encoding="utf-8"?>
<!-- Generator: Adobe Illustrator 25.0.1, SVG Export Plug-In . SVG Version: 6.00 Build 0)  -->
<svg version="1.1" id="Layer_1" xmlns="http://www.w3.org/2000/svg" xmlns:xlink="http://www.w3.org/1999/xlink" x="0px" y="0px"
	 viewBox="0 0 85 25" style="enable-background:new 0 0 85 25;" xml:space="preserve">
<style type="text/css">
	.st0{fill:#29A2DC;}
	.st1{fill:#2389CA;}
	.st2{fill:#1D71B8;}
	.st3{fill:#36A9E1;}
</style>
<g>
	<g id="mhuyJP_2_">
		<g>
			<path class="st0" d="M0.6,18.5c0-1.1,0-2.3,0-3.4c0-2.3,1.9-4.2,4.2-4.2c1.7,0,3.4,0,5.2,0c0.9,0,1.5,0.6,1.5,1.4
				c0,0.9-0.6,1.4-1.6,1.4c-1.7,0-3.4,0-5.1,0c-0.9,0-1.5,0.5-1.5,1.5c0,2.2,0,4.5,0,6.7c0,0.2,0,0.4,0,0.5
				c-0.2,0.7-0.8,1.2-1.4,1.2c-0.7-0.1-1.3-0.6-1.3-1.4C0.6,21,0.6,19.7,0.6,18.5C0.6,18.5,0.6,18.5,0.6,18.5z"/>
			<path class="st1" d="M14.1,11.3c-0.4-1.5-1.3-2.6-2.8-3.1C10.8,8.1,10.4,8,10,8C7.4,8,4.7,8,2.1,8C1,8,0.3,7,0.7,6
				C0.9,5.5,1.4,5.1,2,5.1c3,0,5.9-0.1,8.9,0.1c1.7,0.1,3,0.9,4.2,2.2c0.8,0.9,1.3,1.9,1.6,3c0.1,0.3,0.1,0.6,0.1,0.9
				c-0.6,0-1.3,0-1.9,0C14.6,11.3,14.3,11.4,14.1,11.3z"/>
			<path class="st0" d="M14.1,11.3c0.3,0.2,0.6,0.1,0.8,0.1c0.6,0,1.3,0,1.9,0c0.2,0.9,0.1,1.8-0.1,2.6c-0.7,2.7-2.4,4.6-5.2,5.3
				c-0.9,0.2-1.8,0.1-2.7,0.2c-0.5,0-1,0-1.5,0C6.6,19.4,6,18.8,6,18c0-0.8,0.6-1.4,1.3-1.4c0.9,0,1.7,0,2.6,0
				c2.4,0.1,4.6-2.1,4.2-5C14.1,11.5,14.1,11.4,14.1,11.3z"/>
		</g>
	</g>
	<g>
		<path class="st2" d="M22.2,5.8h4c2.3,0,3.7,1.4,3.7,3.4v0c0,2.3-1.8,3.4-3.9,3.4h-1.6v2.9h-2.1V5.8z M26,10.7
			c1.1,0,1.7-0.6,1.7-1.5v0c0-1-0.7-1.5-1.7-1.5h-1.7v3H26z"/>
		<path class="st2" d="M31.5,5.8h4.4c1.2,0,2.2,0.3,2.8,1c0.5,0.5,0.8,1.3,0.8,2.2v0c0,1.6-0.8,2.6-2.1,3l2.4,3.5h-2.5l-2.1-3.1
			h-1.7v3.1h-2.1V5.8z M35.8,10.5c1,0,1.6-0.6,1.6-1.4v0c0-0.9-0.6-1.4-1.7-1.4h-2.1v2.8H35.8z"/>
		<path class="st2" d="M41.5,5.8h7.3v1.9h-5.2v2h4.6v1.9h-4.6v2h5.3v1.9h-7.4V5.8z"/>
		<path class="st2" d="M50.4,10.7L50.4,10.7c0-2.8,2.1-5.1,5.1-5.1c1.8,0,2.9,0.6,3.8,1.5l-1.4,1.6c-0.8-0.7-1.5-1.1-2.5-1.1
			c-1.6,0-2.8,1.4-2.8,3v0c0,1.7,1.2,3.1,2.8,3.1c1.1,0,1.8-0.4,2.6-1.1l1.4,1.4c-1,1.1-2.1,1.7-4,1.7
			C52.5,15.7,50.4,13.5,50.4,10.7z"/>
		<path class="st2" d="M61.2,5.8h2.1v9.7h-2.1V5.8z"/>
		<path class="st2" d="M65.1,14.1l1.3-1.5c0.9,0.7,1.8,1.2,2.9,1.2c0.9,0,1.4-0.3,1.4-0.9v0c0-0.5-0.3-0.8-2-1.2c-2-0.5-3.2-1-3.2-3
			v0c0-1.8,1.4-2.9,3.4-2.9c1.4,0,2.6,0.4,3.6,1.2l-1.1,1.6c-0.9-0.6-1.7-1-2.5-1c-0.8,0-1.3,0.4-1.3,0.8v0c0,0.6,0.4,0.8,2.1,1.3
			c2,0.5,3.1,1.2,3.1,2.9v0c0,1.9-1.5,3-3.6,3C67.7,15.6,66.2,15.1,65.1,14.1z"/>
		<path class="st2" d="M74.2,10.7L74.2,10.7c0-2.8,2.2-5.1,5.2-5.1c3,0,5.2,2.2,5.2,5v0c0,2.8-2.2,5-5.2,5
			C76.4,15.7,74.2,13.4,74.2,10.7z M82.3,10.7L82.3,10.7c0-1.7-1.2-3.1-2.9-3.1s-2.9,1.4-2.9,3v0c0,1.7,1.2,3.1,2.9,3.1
			C81.1,13.7,82.3,12.3,82.3,10.7z"/>
	</g>
	<g>
		<path class="st3" d="M22,17.8h4.8v1.2h-3.4v1.3h3v1.2h-3v1.3h3.5v1.2H22V17.8z"/>
		<path class="st3" d="M28.1,17.8h2.5c2,0,3.4,1.4,3.4,3.2v0c0,1.8-1.4,3.2-3.4,3.2h-2.5V17.8z M29.5,19.1v3.8h1.1
			c1.1,0,1.9-0.8,1.9-1.9v0c0-1.1-0.8-1.9-1.9-1.9H29.5z"/>
		<path class="st3" d="M35.1,21.5v-3.6h1.4v3.6c0,1,0.5,1.6,1.4,1.6c0.9,0,1.4-0.5,1.4-1.5v-3.6h1.4v3.6c0,1.9-1.1,2.9-2.8,2.9
			C36.2,24.3,35.1,23.3,35.1,21.5z"/>
		<path class="st3" d="M41.7,23.3l0.8-1c0.6,0.5,1.2,0.8,1.9,0.8c0.6,0,0.9-0.2,0.9-0.6v0c0-0.4-0.2-0.5-1.3-0.8
			c-1.3-0.3-2.1-0.7-2.1-1.9v0c0-1.2,0.9-1.9,2.2-1.9c0.9,0,1.7,0.3,2.4,0.8l-0.7,1.1c-0.6-0.4-1.1-0.6-1.7-0.6
			c-0.5,0-0.8,0.2-0.8,0.6v0c0,0.4,0.3,0.6,1.4,0.8c1.3,0.3,2,0.8,2,1.9v0c0,1.3-1,2-2.3,2C43.4,24.3,42.5,23.9,41.7,23.3z"/>
		<path class="st3" d="M47.9,17.8h4.8v1.2h-3.4v1.3h3v1.2h-3v1.3h3.5v1.2h-4.9V17.8z"/>
		<path class="st3" d="M54,17.8H57c0.8,0,1.4,0.2,1.9,0.6c0.4,0.4,0.5,0.9,0.5,1.5v0c0,1-0.6,1.7-1.4,2l1.6,2.3h-1.6l-1.4-2h-1.1v2
			H54V17.8z M56.9,20.9c0.7,0,1.1-0.4,1.1-0.9v0c0-0.6-0.4-0.9-1.1-0.9h-1.4v1.8H56.9z"/>
		<path class="st3" d="M59.9,17.8h1.5l1.7,4.5l1.7-4.5h1.5l-2.6,6.4h-1.2L59.9,17.8z"/>
		<path class="st3" d="M67.3,17.8h4.8v1.2h-3.4v1.3h3v1.2h-3v1.3h3.5v1.2h-4.9V17.8z"/>
	</g>
	<path class="st0" d="M77.2,4.4h4.6c0.9,0,1.5-0.7,1.5-1.5v0c0-0.9-0.7-1.5-1.5-1.5h-4.6c-0.9,0-1.5,0.7-1.5,1.5v0
		C75.6,3.7,76.3,4.4,77.2,4.4z"/>
</g>
</svg>
